<svg xmlns="http://www.w3.org/2000/svg" viewBox="0 0 423 860"><defs><style>.cls-1{fill:#fff;}.cls-2{fill:#f9f9f9;}.cls-3{fill:#d8d8d8;}</style></defs><g id="Layer_2" data-name="Layer 2"><g id="Layer_1-2" data-name="Layer 1"><path class="cls-1" d="M24.08,68H398.92a45,45,0,0,0-44.87-44h-32.7a6.75,6.75,0,0,0-6.6,6.7,24,24,0,0,1-24,24H132.35a24,24,0,0,1-24-24,6.62,6.62,0,0,0-6.6-6.7H69.15A45,45,0,0,0,24.08,68Z"/><path class="cls-2" d="M358.8,0H64.2A64.21,64.21,0,0,0,0,64.2V795.8A64.27,64.27,0,0,0,64.2,860H358.8A64.4,64.4,0,0,0,423,795.8V64.2A64.34,64.34,0,0,0,358.8,0ZM399,791a45,45,0,0,1-45,45H69a45,45,0,0,1-45-45V68.9A45.07,45.07,0,0,1,69.1,24h32.6a6.62,6.62,0,0,1,6.6,6.7,24,24,0,0,0,24,24H290.7a24,24,0,0,0,24-24,6.75,6.75,0,0,1,6.6-6.7H354a45,45,0,0,1,44.9,45l.1,722Z"/><path id="Cap" class="cls-3" d="M377.39,49h.53A1.08,1.08,0,0,1,379,50.05h0v1.61a1.08,1.08,0,0,1-1.08,1.08h-.53V49Z"/><path class="cls-3" d="M375.23,45.74h-21a1.62,1.62,0,0,0-1.62,1.62v7A1.62,1.62,0,0,0,354.24,56h21a1.62,1.62,0,0,0,1.62-1.62v-7A1.62,1.62,0,0,0,375.23,45.74Zm1.08,8.61a1.08,1.08,0,0,1-1.08,1.08h-21a1.08,1.08,0,0,1-1.08-1.08v-7a1.08,1.08,0,0,1,1.08-1.08h21a1.08,1.08,0,0,1,1.08,1.08Z"/><path id="Battery_Level" data-name="Battery Level" class="cls-3" d="M354.24,46.82H358v8.07h-3.77a.54.54,0,0,1-.54-.54h0v-7A.54.54,0,0,1,354.24,46.82Z"/><path id="Exclusion_25" data-name="Exclusion 25" class="cls-3" d="M334.11,55.91a2.71,2.71,0,0,1-2.39-1.25,6.26,6.26,0,0,1-.84-3.52,6.24,6.24,0,0,1,.85-3.5,2.87,2.87,0,0,1,4.75,0,6.39,6.39,0,0,1,.85,3.52,6.25,6.25,0,0,1-.85,3.51A2.69,2.69,0,0,1,334.11,55.91Zm0-8.53a1.71,1.71,0,0,0-1.55,1,5.94,5.94,0,0,0-.54,2.78,5.85,5.85,0,0,0,.54,2.8,1.7,1.7,0,0,0,2.28.81,1.68,1.68,0,0,0,.81-.81,6,6,0,0,0,.53-2.8,5.81,5.81,0,0,0-.54-2.78,1.67,1.67,0,0,0-1.53-1Zm-8.28,8.53a3.47,3.47,0,0,1-2.26-.7,2.46,2.46,0,0,1-.94-1.86h1.1a1.6,1.6,0,0,0,.65,1.15,2.39,2.39,0,0,0,1.45.42,2.18,2.18,0,0,0,1.47-.47,1.64,1.64,0,0,0,0-2.49,2.39,2.39,0,0,0-1.51-.46h-1.13v-1h1.08a1.85,1.85,0,0,0,1.29-.45,1.5,1.5,0,0,0,.5-1.16,1.53,1.53,0,0,0-.46-1.09,1.8,1.8,0,0,0-1.29-.46,2,2,0,0,0-1.33.41,1.64,1.64,0,0,0-.58,1.18h-1.1a2.71,2.71,0,0,1,.9-1.84,3.12,3.12,0,0,1,2.19-.74,2.93,2.93,0,0,1,2.09.73,2.27,2.27,0,0,1,.73,1.68,2,2,0,0,1-.46,1.36,2.38,2.38,0,0,1-1.16.73V51a2.4,2.4,0,0,1,1.42.72,2.19,2.19,0,0,1,.54,1.54,2.35,2.35,0,0,1-.92,1.9A3.42,3.42,0,0,1,325.83,55.91Zm15.31-.21h-1l6.29-9.1h1Zm-.41-5a1.89,1.89,0,0,1-1.45-.58,2.57,2.57,0,0,1,0-3.14,1.92,1.92,0,0,1,1.45-.57,1.85,1.85,0,0,1,1.44.57,2.26,2.26,0,0,1,.53,1.57,2.19,2.19,0,0,1-.53,1.58,1.88,1.88,0,0,1-1.44.57Zm0-3.46a.9.9,0,0,0-.74.35,1.94,1.94,0,0,0,0,1.94.88.88,0,0,0,.75.34.84.84,0,0,0,.73-.34,1.6,1.6,0,0,0,.26-1,1.55,1.55,0,0,0-.26-1,.87.87,0,0,0-.73-.36Z"/><path class="cls-3" d="M348.27,52.08a1.86,1.86,0,0,0-1.44-.58,1.91,1.91,0,0,0-1.45.58,2.18,2.18,0,0,0-.54,1.56,2.26,2.26,0,0,0,.53,1.58,1.89,1.89,0,0,0,1.46.57,1.85,1.85,0,0,0,1.44-.57,2.59,2.59,0,0,0,0-3.14Zm-.7,2.53a1,1,0,0,1-1.48,0,1.94,1.94,0,0,1,0-1.94.85.85,0,0,1,.74-.34.83.83,0,0,1,.73.34,1.68,1.68,0,0,1,.27,1A1.62,1.62,0,0,1,347.57,54.61Z"/><path id="Exclusion_31" data-name="Exclusion 31" class="cls-3" d="M51.12,55.91a3.11,3.11,0,0,1-2-.63,2.77,2.77,0,0,1-1-1.7H49.3a1.84,1.84,0,0,0,.67,1,2,2,0,0,0,2.88-.61,5.38,5.38,0,0,0,.66-2.77h-.1a2.41,2.41,0,0,1-1,1,2.92,2.92,0,0,1-1.45.37,2.87,2.87,0,0,1-2.14-.87A3,3,0,0,1,48,49.52a3,3,0,0,1,.9-2.26,3.3,3.3,0,0,1,4.74.26,5.3,5.3,0,0,1,1,3.47,6.28,6.28,0,0,1-.92,3.63A3,3,0,0,1,51.12,55.91Zm.08-8.53a2,2,0,0,0-1.47.6,2.24,2.24,0,0,0,0,3,2,2,0,0,0,1.47.58,2,2,0,0,0,2.07-1.91v-.15A2.12,2.12,0,0,0,52.67,48,2,2,0,0,0,51.2,47.38ZM65.9,55.7H64.8V53.81H60.36v-1l1-1.57,1-1.58c.31-.51.65-1,1-1.55l1-1.48h1.65v6.2H67.2v1H65.91V55.7Zm-1.17-8.05c-.27.41-.54.81-.79,1.2l-.82,1.28c-.29.46-.57.9-.82,1.31l-.77,1.29v.07h3.28V47.65Zm-7.2,6.76a.83.83,0,0,1-.82-.83.82.82,0,0,1,.82-.81.78.78,0,0,1,.58.24.81.81,0,0,1,0,1.15.79.79,0,0,1-.58.25Zm0-4.89a.82.82,0,0,1-.58-1.4.82.82,0,0,1,1.16,0,.82.82,0,0,1-.58,1.4Z"/><path id="Path-3" class="cls-3" d="M71.32,55.7V47.86h-.1l-.35.25c-.24.17-.51.36-.81.59s-.57.42-.81.58l-.35.26v-1.2l.37-.27.84-.6c.32-.24.6-.44.85-.61l.36-.26h1.13v9.1Z"/><path class="cls-3" d="M83.08,46.6H82L78.6,55.7h1.19l.91-2.6h3.62l.14.39.32.91.32.91.14.39h1.19Zm-2,5.53.14-.41q.15-.4.36-1L82,49.49c.14-.4.26-.74.36-1l.14-.41h.1L84,52.13Z"/><path id="Path-6" class="cls-3" d="M97.18,55.7H96.12v-7h-.07l-2.87,7h-1l-2.87-7h-.08v7H88.21V46.6h1.32l3.12,7.6h.1l3.11-7.6h1.32Z"/><path class="cls-3" d="M358.8,1h0A63.46,63.46,0,0,1,422,64.2V795.8A63.4,63.4,0,0,1,358.8,859H64.2A63.4,63.4,0,0,1,1,795.8V64.2A63.33,63.33,0,0,1,64.2,1H358.8m0-1H64.2A64.21,64.21,0,0,0,0,64.2V795.8A64.27,64.27,0,0,0,64.2,860H358.8A64.4,64.4,0,0,0,423,795.8V64.2A64.34,64.34,0,0,0,358.8,0Z"/><g id="Path_842" data-name="Path 842"><path class="cls-3" d="M69,25h32.7a5.61,5.61,0,0,1,5.6,5.7,25,25,0,0,0,25,25H290.7a25,25,0,0,0,25-25,5.74,5.74,0,0,1,5.6-5.7H354a44.11,44.11,0,0,1,43.9,44V791a44,44,0,0,1-44,44H68.9a44,44,0,0,1-44-44V68.9A44.19,44.19,0,0,1,69,25m0-1A45,45,0,0,0,24,68.9V791a44.94,44.94,0,0,0,45,45H354a44.94,44.94,0,0,0,45-45V69a45,45,0,0,0-44.9-45H321.4a6.62,6.62,0,0,0-6.6,6.7,23.94,23.94,0,0,1-24,24H132.5a24,24,0,0,1-24-24,6.75,6.75,0,0,0-6.6-6.7H69Z"/></g></g></g></svg>