<svg version="1.1" xmlns="http://www.w3.org/2000/svg" xmlns:xlink="http://www.w3.org/1999/xlink" x="0px" y="0px" width="100px" height="125px" viewBox="0 0 100 125" xml:space="preserve">
<style type="text/css">
	#ball,#ballShadow{border-radius:100%}#ballWrapper{transform:translate(0,10px)}#icon-shadow{background-color:#000;filter:url(#blur-icon);opacity:.2}#icon-marker{fill:#fff}#ball{width:70px;height:70px;position:relative;overflow:hidden;background-color:red;animation:jump .8s infinite;z-index:2}#marker-logo{animation:jump-inside .8s infinite;animation-delay:.1s}#ballShadow{margin-left:10px;width:50px;height:20px;position:absolute;background-color:grey;animation:shadow .8s infinite;z-index:-1;filter:url(#blur-shadow)}@keyframes jump{0%,100%{transform:translate(0,-15px);transform-origin:50% 50%;animation-timing-function:ease-in}35%{transform:translate(0,0);transform-origin:50% 50%}}@keyframes jump-inside{0%{transform:translate(0,-4px);transform-origin:50% 50%;animation-timing-function:ease-in}30%{transform:translate(0,2px);transform-origin:50% 50%}100%{transform:translate(0,-4px);transform-origin:50% 50%}}@keyframes shadow{0%,100%{top:90px;transform:scaleX(1.3);transform-origin:50% 50%;height:20px;animation-timing-function:ease-in;opacity:.05}35%{top:90px;transform:scaleX(1);transform-origin:50% 50%;height:20px;opacity:.3}}
</style>
<defs> 
<filter id="blur-shadow">
  <feGaussianBlur in="SourceGraphic" stdDeviation="2" />
</filter>    
<filter id="blur-icon">
  <feGaussianBlur in="SourceGraphic" stdDeviation="5" />
</filter>  
</defs>
<g id="ballWrapper">
  <ellipse cx="51" cy="92.5" id="ballShadow" rx="25" ry="10"></ellipse>
  <g id="ball">
    <circle cx="50" cy="51" id="icon-shadow" r="35"></circle>
    <circle cx="50" cy="51" id="icon-marker" r="35"></circle>
    <polygon id="icon-marker" points="51,79.5 58.5,79.5 54.8,86 51,92.5 47.3,86 43.5,79.5"></polygon>
    <path d="M47.1,68.1c-5.7,0-9.5-3.7-10.7-7.8c-1.5-4.9,0.3-11.3,6.6-13.5c4.6-1.5,9.8-0.8,13.8,2l0.3,0.2 c-0.3-3-1.4-5.5-2.5-6.7c-2.1-2.2-4.9-2.9-8.5-1.9c-1.4,0.3-2.7,0.8-4,1.5c-0.9,0.5-2,0.2-2.6-0.7l-1.2-1.7 c-0.7-0.9-0.4-2.2,0.5-2.9c0.1-0.1,0.2-0.1,0.2-0.1c1.7-0.9,3.5-1.6,5.4-2.1c5.9-1.5,11.1-0.3,14.8,3.6c3.3,3.5,5.6,11.2,3.6,18.2 c0,0.1,0,0.1,0,0.2c0.9,2.3,1.6,5.1,1.8,8.5c0.1,1.2-0.8,2.1-1.9,2.2c-0.1,0-0.1,0-0.2,0h-2.1c-1.1,0-2-0.8-2-1.9 c0-0.4-0.1-0.9-0.1-1.4c-1.9,1.8-4.3,3-6.8,3.7C49.8,68,48.4,68.1,47.1,68.1z M47.7,52.3c-0.9,0-1.9,0.2-2.8,0.4 c-2.8,1-3.4,3.7-2.7,5.8c0.7,2.3,3,4.3,7.3,3.1c3-0.8,5-2.4,6.2-4.8c-0.7-1.1-1.6-2.1-2.6-2.9C51.5,52.8,49.7,52.2,47.7,52.3z" id="marker-logo"></path>
  </g>
</g></svg>