<svg id="messenger_icon" data-name="messenger icon" xmlns="http://www.w3.org/2000/svg" xmlns:xlink="http://www.w3.org/1999/xlink" width="30" height="30" viewBox="0 0 30 30">
  <defs>
    <linearGradient id="linear-gradient" x1="0.5" x2="0.5" y2="1" gradientUnits="objectBoundingBox">
      <stop offset="0" stop-color="#00b2ff"/>
      <stop offset="1" stop-color="#006aff"/>
    </linearGradient>
  </defs>
  <path id="Bubble_Solid_3_" d="M30,11.5c-8.451,0-15,6.19-15,14.55a14.235,14.235,0,0,0,4.711,10.763,1.209,1.209,0,0,1,.4.854l.081,2.668A1.2,1.2,0,0,0,21.881,41.4l2.976-1.313a1.2,1.2,0,0,1,.8-.06A16.315,16.315,0,0,0,30,40.6c8.451,0,15-6.19,15-14.55S38.451,11.5,30,11.5Z" transform="translate(-15 -11.5)" fill-rule="evenodd" fill="url(#linear-gradient)"/>
  <path id="Bolt_4_" d="M209.845,354.8l4.406-6.99a2.252,2.252,0,0,1,3.254-.6l3.5,2.629a.9.9,0,0,0,1.083,0l4.732-3.592a.712.712,0,0,1,1.032.948l-4.4,6.987a2.252,2.252,0,0,1-3.254.6l-3.5-2.629a.9.9,0,0,0-1.083,0l-4.735,3.594A.712.712,0,0,1,209.845,354.8Z" transform="translate(-203.851 -335.993)" fill="#fff" fill-rule="evenodd"/>
</svg>
