<svg id="whatsapp_icon" data-name="whatsapp icon" xmlns="http://www.w3.org/2000/svg" xmlns:xlink="http://www.w3.org/1999/xlink" width="30" height="30" viewBox="0 0 30 30">
  <defs>
    <linearGradient id="linear-gradient" x1="0.5" y1="1" x2="0.5" gradientUnits="objectBoundingBox">
      <stop offset="0" stop-color="#25cf43"/>
      <stop offset="1" stop-color="#61fd7d"/>
    </linearGradient>
  </defs>
  <g id="WhatsApp_Logo_Icon" data-name="WhatsApp Logo Icon" transform="translate(0)">
    <g id="Icon_Shape" data-name="Icon Shape" transform="translate(0)">
      <path id="Path_1209" data-name="Path 1209" d="M30,22.388c0,.164-.005.521-.015.8a15.836,15.836,0,0,1-.158,1.938,6.45,6.45,0,0,1-.543,1.624,5.781,5.781,0,0,1-2.545,2.543,6.472,6.472,0,0,1-1.634.543,15.548,15.548,0,0,1-1.923.154c-.275.01-.632.014-.8.014H7.613c-.164,0-.52-.005-.8-.015a15.836,15.836,0,0,1-1.938-.158,6.45,6.45,0,0,1-1.624-.543A5.783,5.783,0,0,1,.714,26.739,6.473,6.473,0,0,1,.17,25.105a15.649,15.649,0,0,1-.154-1.923c-.011-.276-.016-.631-.016-.8L0,7.613c0-.164,0-.52.015-.8A15.734,15.734,0,0,1,.176,4.88,6.45,6.45,0,0,1,.719,3.256,5.781,5.781,0,0,1,3.264.714,6.461,6.461,0,0,1,4.9.17,15.874,15.874,0,0,1,6.82.015C7.1.005,7.452,0,7.616,0L22.388,0c.164,0,.521,0,.8.015a15.836,15.836,0,0,1,1.938.158,6.45,6.45,0,0,1,1.624.543,5.774,5.774,0,0,1,2.542,2.545A6.44,6.44,0,0,1,29.832,4.9a15.658,15.658,0,0,1,.154,1.923c.01.276.014.632.014.8Z" transform="translate(0 0)" fill-rule="evenodd" fill="url(#linear-gradient)"/>
    </g>
    <g id="WA_Logo" data-name="WA Logo" transform="translate(4.542 4.048)">
      <path id="Path_1210" data-name="Path 1210" d="M106.76,81.943a10.694,10.694,0,0,0-16.83,12.9l-1.52,5.54L94.08,98.9a10.692,10.692,0,0,0,5.111,1.3h0a10.7,10.7,0,0,0,7.565-18.255ZM99.194,98.391h0a8.878,8.878,0,0,1-4.525-1.239l-.323-.192-3.364.883.9-3.279-.211-.334a8.89,8.89,0,1,1,7.53,4.161Zm4.876-6.655c-.268-.134-1.581-.78-1.826-.869s-.423-.134-.6.134-.69.869-.847,1.047-.311.2-.579.067a7.271,7.271,0,0,1-2.149-1.326,8.1,8.1,0,0,1-1.487-1.849c-.156-.266-.016-.411.117-.545s.268-.312.4-.468a1.822,1.822,0,0,0,.267-.446.492.492,0,0,0-.022-.468c-.067-.134-.6-1.449-.822-1.983s-.437-.451-.6-.459-.334-.009-.514-.009a.982.982,0,0,0-.712.334,3,3,0,0,0-.935,2.228,5.2,5.2,0,0,0,1.091,2.764,11.9,11.9,0,0,0,4.565,4.034,15.386,15.386,0,0,0,1.523.562,3.635,3.635,0,0,0,1.683.106,2.75,2.75,0,0,0,1.8-1.27,2.207,2.207,0,0,0,.154-1.27c-.069-.111-.243-.179-.511-.313Z" transform="translate(-88.41 -78.809)" fill="#fff" fill-rule="evenodd"/>
    </g>
  </g>
</svg>
